<?xml version="1.0" encoding="UTF-8"?>
<svg version="1.1" xmlns="http://www.w3.org/2000/svg" width="311" height="265">
<path d="M0 0 C102.63 0 205.26 0 311 0 C311 87.45 311 174.9 311 265 C208.37 265 105.74 265 0 265 C0 177.55 0 90.1 0 0 Z " fill="#FEFEFE" transform="translate(0,0)"/>
<path d="M0 0 C0 0.66 0 1.32 0 2 C3.30567489 2.85387105 3.30567489 2.85387105 7 3 C9.29215045 1.20808968 9.29215045 1.20808968 11 -1 C16.63796966 -2.87932322 23.01814256 -3.05992278 28.6484375 -1.05859375 C34.09254525 1.82624076 37.57245851 5.00216287 40.25 10.625 C41.93299797 18.19849087 41.84286373 24.50688984 37.96484375 31.296875 C36.68019768 33.56450935 36.13706782 35.39571146 36 38 C36.48146484 39.20849609 36.48146484 39.20849609 36.97265625 40.44140625 C38.41058987 45.42223336 38.32902099 50.15464709 38.3125 55.3125 C38.32861328 56.30701172 38.34472656 57.30152344 38.36132812 58.32617188 C38.36685601 66.74514646 36.38366661 73.37100522 32.8125 80.9375 C31.38092424 83.85082175 31.38092424 83.85082175 31 87 C32.74382423 88.27640743 34.54840272 89.47014882 36.375 90.625 C42.22463881 94.44027965 47.68411127 98.4734402 53 103 C53.49564453 103.4218457 53.99128906 103.84369141 54.50195312 104.27832031 C70.40600261 117.9455549 70.40600261 117.9455549 72 128 C72.66 128 73.32 128 74 128 C76.62065657 136.13671595 78.02477949 145.75651933 74.8671875 153.93359375 C72.05275882 158.42047089 69.14853829 161.32112882 64 163 C62.68 163 61.36 163 60 163 C60.03480469 163.83402344 60.06960937 164.66804687 60.10546875 165.52734375 C60.42954017 178.99945576 56.58947229 189.26965071 47.3125 199.25 C36.79957467 209.16104029 24.95235945 211.70778979 10.94921875 211.3125 C2.3555287 210.63248496 -5.30578496 207.66598228 -11 201 C-12.4375 198.125 -12.4375 198.125 -13 196 C-13.66 196 -14.32 196 -15 196 C-15.66 194.02 -16.32 192.04 -17 190 C-17.57830566 190.14655029 -18.15661133 190.29310059 -18.75244141 190.4440918 C-26.7882888 192.28772167 -34.41310393 192.04949504 -42.60546875 191.65820312 C-48.61633712 191.29161214 -48.61633712 191.29161214 -53.48046875 194.30859375 C-53.98191406 195.19675781 -54.48335938 196.08492187 -55 197 C-58.86485357 200.47298969 -62.63170346 203.66448147 -68 204 C-68 204.66 -68 205.32 -68 206 C-77.60316772 210.19047319 -89.54451215 210.83403716 -99.5625 207.5 C-101.2640625 206.7575 -101.2640625 206.7575 -103 206 C-103 205.34 -103 204.68 -103 204 C-104.33417969 203.61328125 -104.33417969 203.61328125 -105.6953125 203.21875 C-117.77934527 198.76222727 -126.71910291 186.31009943 -132 175 C-135.48992543 166.35827988 -135.07648352 155.96198061 -132.0390625 147.21875 C-129.47175039 141.73667 -125.36858255 137.47343685 -120.01171875 134.64453125 C-116.09218465 133.38875819 -112.0605874 133.70587294 -108 134 C-107.86464844 133.40574219 -107.72929688 132.81148437 -107.58984375 132.19921875 C-103.20308868 115.30889832 -90.5911518 102.82255691 -76 94 C-74.35380887 93.28426473 -72.69271945 92.5974304 -71 92 C-71.3609375 91.44570312 -71.721875 90.89140625 -72.09375 90.3203125 C-72.5578125 89.59585938 -73.021875 88.87140625 -73.5 88.125 C-73.9640625 87.40570313 -74.428125 86.68640625 -74.90625 85.9453125 C-76 84 -76 84 -76 82 C-76.99 81.67 -77.98 81.34 -79 81 C-80.09765625 78.05078125 -80.09765625 78.05078125 -81.0625 74.3125 C-82.401309 69.14559913 -82.401309 69.14559913 -84.11328125 64.09765625 C-85.27517778 60.03869613 -85.21743051 56.31992297 -85.125 52.125 C-85.11597656 51.34125 -85.10695312 50.5575 -85.09765625 49.75 C-85.07428063 47.83319945 -85.03841653 45.91655809 -85 44 C-85.5671875 43.89042969 -86.134375 43.78085937 -86.71875 43.66796875 C-92.06725748 42.1018818 -97.3570888 38.43442824 -100.5 33.8125 C-103.72732383 27.76126783 -103.7224565 21.72939821 -103 15 C-100.68998583 9.43104467 -95.95058582 5.68604904 -90.8125 2.75 C-81.75950405 0.33586775 -75.07598784 2.70099507 -67 7 C-67 6.34 -67 5.68 -67 5 C-48.78604253 -12.38206999 -21.09253859 -9.34174615 0 0 Z " fill="#4D4D4D" transform="translate(183,20)"/>
<path d="M0 0 C1.3008252 -0.00362549 1.3008252 -0.00362549 2.62792969 -0.00732422 C8.59142895 0.14672714 13.59298196 1.37908616 19.125 3.5625 C20.24648437 3.99691406 21.36796875 4.43132813 22.5234375 4.87890625 C23.99683594 5.49572266 23.99683594 5.49572266 25.5 6.125 C26.49773437 6.53878906 27.49546875 6.95257813 28.5234375 7.37890625 C31.125 8.5625 31.125 8.5625 34.125 10.5625 C33.795 12.8725 33.465 15.1825 33.125 17.5625 C33.785 17.5625 34.445 17.5625 35.125 17.5625 C35.16625 16.840625 35.2075 16.11875 35.25 15.375 C36.51965113 11.2939785 38.70222785 10.07718974 42.125 7.5625 C45.15656857 6.04671572 48.00466614 6.31278073 51.375 6.25 C52.67953125 6.21261719 53.9840625 6.17523437 55.328125 6.13671875 C60.7982493 6.75013804 63.76784466 9.09530504 67.4375 13.0625 C71.11995668 18.51799138 70.83400144 25.19778588 70.125 31.5625 C68.73379385 35.48657475 66.91983803 38.51582603 63.26953125 40.64453125 C61.58130363 41.35115023 59.85445951 41.96384094 58.125 42.5625 C57.63 43.5525 57.63 43.5525 57.125 44.5625 C57.723125 44.2325 58.32125 43.9025 58.9375 43.5625 C61.125 42.5625 61.125 42.5625 64.125 42.5625 C69.73679822 54.53433621 67.73267323 70.01512662 64 82.25 C63.71125 83.013125 63.4225 83.77625 63.125 84.5625 C62.465 84.5625 61.805 84.5625 61.125 84.5625 C60.939375 85.366875 60.75375 86.17125 60.5625 87 C56.92350333 96.01838305 49.49176543 103.39522209 40.80859375 107.71484375 C37.44961235 108.77583205 34.32616095 108.99047228 30.8125 109.1875 C28.93111328 109.29964844 28.93111328 109.29964844 27.01171875 109.4140625 C26.05910156 109.46304688 25.10648437 109.51203125 24.125 109.5625 C24.03863281 108.83804688 23.95226562 108.11359375 23.86328125 107.3671875 C22.99210416 101.37284973 22.18553306 96.38281489 17.125 92.5625 C7.91022152 86.33785245 -0.56680951 85.12308706 -11.4453125 87.0078125 C-19.00238947 89.08798351 -25.42283702 94.19226681 -29.875 100.5625 C-35.45077358 99.9429696 -38.52514139 95.12527724 -41.875 91.0625 C-50.51907835 79.23258866 -52.32166413 64.78130826 -51.875 50.5625 C-50.555 50.5625 -49.235 50.5625 -47.875 50.5625 C-47.875 49.9025 -47.875 49.2425 -47.875 48.5625 C-48.92300781 48.36333984 -48.92300781 48.36333984 -49.9921875 48.16015625 C-50.90226562 47.98355469 -51.81234375 47.80695312 -52.75 47.625 C-53.65492187 47.45097656 -54.55984375 47.27695312 -55.4921875 47.09765625 C-57.875 46.5625 -57.875 46.5625 -59.875 45.5625 C-59.875 44.9025 -59.875 44.2425 -59.875 43.5625 C-60.431875 43.52125 -60.98875 43.48 -61.5625 43.4375 C-65.10722364 42.09625322 -66.66184295 39.55325278 -68.875 36.5625 C-70.74798772 30.94353684 -70.41381173 25.38847309 -68.75 19.75 C-66.10030142 15.24551242 -63.16600853 12.89892164 -58.625 10.25 C-53.35591673 8.93272918 -48.44559026 8.43736626 -43.3671875 10.66015625 C-38.19694459 13.85956399 -35.40421408 17.06420853 -32.875 22.5625 C-33.37 21.20125 -33.37 21.20125 -33.875 19.8125 C-34.875 16.5625 -34.875 16.5625 -34.875 12.5625 C-26.0676037 3.44481603 -12.17751522 0.03221565 0 0 Z " fill="#FCFCFC" transform="translate(151.875,14.4375)"/>
<path d="M0 0 C16.24866771 5.82264662 34.32411722 23.35649631 41.60546875 38.71484375 C43.75066273 43.70552231 43.76866187 47.9411856 43.80078125 53.2890625 C43.83171875 54.56523437 43.83171875 54.56523437 43.86328125 55.8671875 C43.89346426 60.71155988 43.73471191 63.99889417 40.55078125 67.9140625 C37.26524963 70.33498054 34.51923331 71.19735209 30.55078125 71.9140625 C30.32003906 71.12902344 30.08929688 70.34398437 29.8515625 69.53515625 C27.08414015 60.62033722 24.81609134 54.64414754 16.73828125 49.6015625 C11.25935983 46.76866862 6.02519748 46.01265511 -0.05395508 45.6706543 C-5.03097408 45.32182923 -5.03097408 45.32182923 -7.3203125 43.08984375 C-8.32523169 41.15302717 -9.23769309 39.26556724 -10.01171875 37.2265625 C-11.05928853 33.84133358 -11.05928853 33.84133358 -13.44921875 32.9140625 C-13.44921875 33.9040625 -13.44921875 34.8940625 -13.44921875 35.9140625 C-12.78921875 35.9140625 -12.12921875 35.9140625 -11.44921875 35.9140625 C-8.44921875 42.5390625 -8.44921875 42.5390625 -8.44921875 45.9140625 C-9.48820312 46.37554687 -10.5271875 46.83703125 -11.59765625 47.3125 C-20.93905079 51.61934149 -27.77520409 55.92107261 -34.44921875 63.9140625 C-35.21105469 64.80738281 -35.21105469 64.80738281 -35.98828125 65.71875 C-37.29477761 67.39395086 -38.38293822 69.07683813 -39.44921875 70.9140625 C-39.89007813 71.66558594 -40.3309375 72.41710937 -40.78515625 73.19140625 C-45.06769537 81.42229791 -45.73429649 89.81214181 -46.44921875 98.9140625 C-53.60114259 100.80831553 -60.13410536 101.16008329 -67.51171875 101.0390625 C-69.09629883 101.02552734 -69.09629883 101.02552734 -70.71289062 101.01171875 C-73.29191128 100.9883792 -75.87043865 100.95564025 -78.44921875 100.9140625 C-77.57421875 95.1640625 -77.57421875 95.1640625 -76.44921875 92.9140625 C-75.76023773 83.44057352 -76.36977307 76.52848783 -82.44921875 68.9765625 C-86.19891416 64.85751808 -90.52844705 61.73920373 -95.09375 58.578125 C-97.44921875 56.9140625 -97.44921875 56.9140625 -99.44921875 54.9140625 C-99.01351562 54.36878906 -98.5778125 53.82351562 -98.12890625 53.26171875 C-93.49991092 47.40032856 -89.17992857 41.39759282 -85.29296875 35.015625 C-84.26171875 33.3515625 -84.26171875 33.3515625 -82.44921875 30.9140625 C-81.45921875 30.9140625 -80.46921875 30.9140625 -79.44921875 30.9140625 C-79.44921875 31.5740625 -79.44921875 32.2340625 -79.44921875 32.9140625 C-74.47156118 33.72212379 -69.62247432 34.10643063 -64.57421875 34.1015625 C-63.87748047 34.10220703 -63.18074219 34.10285156 -62.46289062 34.10351562 C-57.17152174 34.04937139 -52.52084095 33.36309741 -47.44921875 31.9140625 C-47.44921875 31.2540625 -47.44921875 30.5940625 -47.44921875 29.9140625 C-46.85109375 29.6871875 -46.25296875 29.4603125 -45.63671875 29.2265625 C-42.89410185 27.58099236 -42.02953782 25.64370453 -40.44921875 22.9140625 C-39.78921875 22.9140625 -39.12921875 22.9140625 -38.44921875 22.9140625 C-38.11921875 20.9340625 -37.78921875 18.9540625 -37.44921875 16.9140625 C-36.67320312 16.92308594 -35.8971875 16.93210937 -35.09765625 16.94140625 C-24.84786306 16.66008734 -15.36130754 13.85704493 -7.96484375 6.4140625 C-5.89038768 3.98169956 -5.89038768 3.98169956 -4.1953125 1.5390625 C-2.44921875 -0.0859375 -2.44921875 -0.0859375 0 0 Z " fill="#FBFBFB" transform="translate(212.44921875,109.0859375)"/>
<path d="M0 0 C1.16015625 -0.02416992 1.16015625 -0.02416992 2.34375 -0.04882812 C7.95331715 -0.05353414 12.10275904 1.08555443 17.25 3.3125 C17.25 3.9725 17.25 4.6325 17.25 5.3125 C18.12398437 5.54324219 18.99796875 5.77398437 19.8984375 6.01171875 C23.7222444 7.49578366 25.89486711 9.32535403 28.875 12.125 C29.79539063 12.97707031 30.71578125 13.82914063 31.6640625 14.70703125 C38.25 21.34271148 38.25 21.34271148 38.25 24.3125 C38.91 24.3125 39.57 24.3125 40.25 24.3125 C38.00421558 20.90510295 35.73862878 17.54771742 33.25 14.3125 C34.9 12.6625 36.55 11.0125 38.25 9.3125 C48.56791431 13.00679843 56.833965 20.32515567 61.625 30.125 C63.28780471 38.60530401 62.85333771 45.88159283 58.25 53.3125 C51.88187207 62.50152279 43.16499657 67.53598093 32.31640625 69.8359375 C20.85586453 71.61706628 11.27766768 69.91581863 1.453125 63.48046875 C-3.84354167 59.41166571 -8.87070893 54.78461257 -12.75 49.3125 C-12.75 48.6525 -12.75 47.9925 -12.75 47.3125 C-13.41 47.3125 -14.07 47.3125 -14.75 47.3125 C-20.85155658 36.33903728 -23.76636848 27.60573588 -21.265625 14.83984375 C-19.52713522 9.33815963 -15.78233636 4.48051246 -11.10546875 1.13671875 C-7.43891617 -0.14627063 -3.85574192 -0.01575058 0 0 Z " fill="#FCFCFC" transform="translate(72.75,156.6875)"/>
<path d="M0 0 C2.43873175 2.12680095 3.91007863 4.04878728 5.125 7.0625 C5.125 8.0525 5.125 9.0425 5.125 10.0625 C5.785 10.0625 6.445 10.0625 7.125 10.0625 C10.26723456 19.48920367 9.5617262 32.37133016 5.5 41.375 C4.43321277 43.30418999 3.31241497 45.20512154 2.125 47.0625 C1.64546875 47.83851563 1.1659375 48.61453125 0.671875 49.4140625 C-5.11587793 57.90488685 -13.94776796 63.60659813 -23.875 66.0625 C-34.131726 67.36582943 -44.90920566 67.80951873 -53.7734375 61.84375 C-58.48649465 57.84903985 -62.01815676 54.05123766 -63.875 48.0625 C-65.08346046 32.57223412 -62.78616083 22.33346102 -52.875 10.0625 C-52.10929688 9.06347656 -51.34359375 8.06445312 -50.5546875 7.03515625 C-47.76984647 3.71661629 -44.53312218 1.52069336 -40.875 -0.75 C-40.27171875 -1.14380859 -39.6684375 -1.53761719 -39.046875 -1.94335938 C-27.93336835 -8.98594022 -10.24036501 -8.22143126 0 0 Z " fill="#FCFCFC" transform="translate(232.875,162.9375)"/>
<path d="M0 0 C3.37662649 2.87372467 5.2292772 4.66371114 6 9 C6.53171366 15.67709654 6.48801771 21.18663714 3 27 C-2.67522625 32.80420866 -8.68289356 34.22773141 -16.55932617 34.33007812 C-34.08311236 34.19705624 -34.08311236 34.19705624 -41.0625 27.5625 C-44.56734054 23.1631526 -44.783873 19.2610926 -44.41796875 13.765625 C-43.49209182 7.63926177 -40.73877562 4.06683577 -35.984375 0.32421875 C-26.19835297 -6.20621721 -9.61019377 -6.83802249 0 0 Z " fill="#F9F9F9" transform="translate(167,107)"/>
<path d="M0 0 C2.6637311 1.19017772 4.12272938 1.84324808 6 4 C6.57521812 6.79329404 6.690936 9.46101448 6.8046875 12.30859375 C7.20863696 17.87501729 9.96459377 21.38204959 14 25 C10.46393248 37.27546754 0.67545264 47.00023137 -8 56 C-11.55366335 55.40241087 -13.41972043 54.01843277 -16.125 51.6875 C-20.76814856 47.95462274 -25.38839773 45.88952428 -31 44 C-32.794375 43.38125 -32.794375 43.38125 -34.625 42.75 C-35.40875 42.5025 -36.1925 42.255 -37 42 C-34.72680848 32.62807003 -30.64100692 24.11536456 -24 17 C-23.34 17 -22.68 17 -22 17 C-21.75121094 16.40960938 -21.50242187 15.81921875 -21.24609375 15.2109375 C-17.08104344 7.82091093 -7.25776796 3.70349655 0 0 Z " fill="#FBFBFB" transform="translate(114,113)"/>
<path d="M0 0 C2.81962165 2.60614872 4.95334682 5.57433573 7.1875 8.6875 C8.26064453 10.17830078 8.26064453 10.17830078 9.35546875 11.69921875 C9.89816406 12.45847656 10.44085938 13.21773437 11 14 C7.8911766 16.45589629 4.64386984 18.38243468 1.1875 20.3125 C-13.54088928 28.84888115 -22.23988484 41.07497574 -28 57 C-27.38253906 57.08636719 -26.76507813 57.17273438 -26.12890625 57.26171875 C-16.92586051 58.78855587 -10.1880399 62.36211308 -3.60546875 68.9609375 C-2.0512547 70.1815076 -2.0512547 70.1815076 -0.08984375 69.94921875 C7.64453401 66.436221 13.25565945 56.52165828 17.75 49.5625 C18.20455566 48.87663818 18.65911133 48.19077637 19.12744141 47.48413086 C20.53517537 45.30839931 20.53517537 45.30839931 22 42 C21.49102695 39.64083921 21.49102695 39.64083921 20 38 C19.33333333 36.66666667 18.66666667 35.33333333 18 34 C20.43549343 35.08244152 22.21580961 36.18583605 24.25 37.9375 C27.69896805 40.52422604 30.9252221 41.61871936 35 43 C31.30581799 44.231394 28.7943739 43.64432764 25 43 C24.47212891 43.92619141 24.47212891 43.92619141 23.93359375 44.87109375 C20.37381771 50.9775503 16.42193807 56.49666787 12 62 C10.99485524 63.32945921 9.9932655 64.66164226 9 66 C9.78503906 66.56847656 10.57007812 67.13695312 11.37890625 67.72265625 C30.11518238 81.49324448 30.11518238 81.49324448 32 91 C32.1430746 93.08008458 32.22035846 95.16521138 32.25 97.25 C32.27578125 98.32765625 32.3015625 99.4053125 32.328125 100.515625 C31.92377423 104.80944503 30.6495372 108.02374716 29 112 C32.64605302 111.85936717 36.29178139 111.71153182 39.9375 111.5625 C40.95908203 111.52318359 41.98066406 111.48386719 43.03320312 111.44335938 C49.06590209 111.19279999 55.007705 110.74356945 61 110 C61 107.36 61 104.72 61 102 C61.33 102 61.66 102 62 102 C62.495 106.95 62.495 106.95 63 112 C53.62309322 114.08375706 44.85524798 114.10925809 35.27929688 113.66210938 C29.33113651 113.29771919 29.33113651 113.29771919 24.52734375 116.30859375 C24.02332031 117.19675781 23.51929688 118.08492188 23 119 C19.13514643 122.47298969 15.36829654 125.66448147 10 126 C10 126.66 10 127.32 10 128 C0.39683228 132.19047319 -11.54451215 132.83403716 -21.5625 129.5 C-23.2640625 128.7575 -23.2640625 128.7575 -25 128 C-25 127.34 -25 126.68 -25 126 C-26.33417969 125.61328125 -26.33417969 125.61328125 -27.6953125 125.21875 C-39.77934527 120.76222727 -48.71910291 108.31009943 -54 97 C-57.48992543 88.35827988 -57.07648352 77.96198061 -54.0390625 69.21875 C-51.47175039 63.73667 -47.36858255 59.47343685 -42.01171875 56.64453125 C-38.09218465 55.38875819 -34.0605874 55.70587294 -30 56 C-29.86464844 55.40574219 -29.72929688 54.81148437 -29.58984375 54.19921875 C-25.20308868 37.30889832 -12.5911518 24.82255691 2 16 C3.65919319 15.31494513 5.32495519 14.64532714 7 14 C6.4946875 13.15695313 5.989375 12.31390625 5.46875 11.4453125 C4.49421875 9.80175781 4.49421875 9.80175781 3.5 8.125 C2.52546875 6.48917969 2.52546875 6.48917969 1.53125 4.8203125 C0 2 0 2 0 0 Z M-48.86328125 65.21875 C-49.34152344 65.9715625 -49.81976563 66.724375 -50.3125 67.5 C-50.80363281 68.2528125 -51.29476562 69.005625 -51.80078125 69.78125 C-55.18498808 76.04258381 -55.1321641 84.1020676 -54 91 C-52.31040146 96.2907344 -49.69094336 101.16042074 -47 106 C-46.34 106 -45.68 106 -45 106 C-44.74089844 106.74507812 -44.48179688 107.49015625 -44.21484375 108.2578125 C-40.06560619 117.62361561 -28.78972967 124.3602769 -19.5625 127.9375 C-9.19438427 130.90772532 2.45021037 129.31342299 11.98828125 124.48828125 C20.67329917 119.25846667 27.17560866 112.96470652 30 103 C31.28957455 93.89402463 28.94595666 87.33228921 23.875 79.875 C19.08768913 74.55246183 12.68907962 70.43673615 6 68 C4.35 69.98 2.7 71.96 1 74 C1.63228516 74.72316406 1.63228516 74.72316406 2.27734375 75.4609375 C2.82519531 76.09257812 3.37304688 76.72421875 3.9375 77.375 C4.48277344 78.00148438 5.02804688 78.62796875 5.58984375 79.2734375 C7 81 7 81 8 83 C7.34 83 6.68 83 6 83 C5.773125 82.46375 5.54625 81.9275 5.3125 81.375 C1.53021166 74.53085919 -5.7264742 66.66861138 -13.30859375 64.26953125 C-13.86675781 64.18058594 -14.42492187 64.09164062 -15 64 C-15 63.34 -15 62.68 -15 62 C-20.91785545 59.45896184 -25.70780226 58.5029813 -32.125 58.5625 C-32.89714844 58.54251953 -33.66929688 58.52253906 -34.46484375 58.50195312 C-40.80192575 58.50735098 -44.68148555 60.23916938 -48.86328125 65.21875 Z " fill="#505050" transform="translate(105,98)"/>
<path d="M0 0 C4.5566726 3.16685289 7.8095047 6.49492035 9.57421875 11.7890625 C9.70203661 14.46301214 9.61813746 17.11002107 9.57421875 19.7890625 C10.34765625 19.5415625 10.34765625 19.5415625 11.13671875 19.2890625 C14.30785751 18.6385725 17.34640209 18.7269891 20.57421875 18.7890625 C16.74904362 21.17979695 12.97756351 21.34872802 8.57421875 21.7890625 C8.24421875 23.7690625 7.91421875 25.7490625 7.57421875 27.7890625 C6.91421875 27.7890625 6.25421875 27.7890625 5.57421875 27.7890625 C5.34734375 28.5728125 5.12046875 29.3565625 4.88671875 30.1640625 C3.57421875 32.7890625 3.57421875 32.7890625 0.94921875 34.1015625 C0.16546875 34.3284375 -0.61828125 34.5553125 -1.42578125 34.7890625 C-1.42578125 35.4490625 -1.42578125 36.1090625 -1.42578125 36.7890625 C-7.19236362 39.26045494 -12.29165556 40.08998225 -18.55078125 40.1015625 C-19.55334961 40.10929687 -19.55334961 40.10929687 -20.57617188 40.1171875 C-25.2234212 40.05308751 -29.05321943 39.21440408 -33.42578125 37.7890625 C-30.54514027 36.973617 -27.93096403 36.64666976 -24.94140625 36.578125 C-24.08804688 36.54976562 -23.2346875 36.52140625 -22.35546875 36.4921875 C-20.58483447 36.44056551 -18.81397337 36.39616145 -17.04296875 36.359375 C-9.24454519 36.07835073 -2.08782965 34.61764174 3.57421875 28.7890625 C6.52597212 23.02611544 6.66473962 15.25844053 4.734375 9.1171875 C2.73048906 5.09592143 -0.67022033 2.68718368 -4.6171875 0.66796875 C-13.37201774 -2.07172082 -24.82115824 -1.11692219 -33.1796875 2.4453125 C-37.77830741 5.19648685 -40.73852962 8.7273076 -42.42578125 13.7890625 C-42.51994903 15.80813058 -42.55569317 17.83030563 -42.55078125 19.8515625 C-42.55335937 20.91503906 -42.5559375 21.97851562 -42.55859375 23.07421875 C-42.6101658 25.75610634 -42.6101658 25.75610634 -41.42578125 27.7890625 C-42.91078125 28.2840625 -42.91078125 28.2840625 -44.42578125 28.7890625 C-46.17741581 25.01684161 -46.65068152 22.1224235 -46.55078125 17.9765625 C-46.53273438 17.00074219 -46.5146875 16.02492188 -46.49609375 15.01953125 C-46.47289063 14.28347656 -46.4496875 13.54742187 -46.42578125 12.7890625 C-47.74578125 12.1290625 -49.06578125 11.4690625 -50.42578125 10.7890625 C-50.42578125 9.7990625 -50.42578125 8.8090625 -50.42578125 7.7890625 C-48.44578125 8.7790625 -46.46578125 9.7690625 -44.42578125 10.7890625 C-44.02746094 9.891875 -44.02746094 9.891875 -43.62109375 8.9765625 C-40.07524077 2.48741979 -32.46096904 -1.6220083 -25.59375 -3.7890625 C-16.28778914 -5.59995218 -8.24864216 -4.64743256 0 0 Z " fill="#656565" transform="translate(166.42578125,104.2109375)"/>
<path d="M0 0 C0.99 0.33 1.98 0.66 3 1 C3.60661219 2.63009057 4.16180646 4.27954345 4.6875 5.9375 C5.81066634 8.77399607 5.81066634 8.77399607 8 11 C13.05419663 12.87503266 18.66809181 12.86215984 24 13 C24.495 14.485 24.495 14.485 25 16 C24.44127197 15.98428955 23.88254395 15.9685791 23.30688477 15.95239258 C20.7255301 15.88925076 18.1443387 15.85076296 15.5625 15.8125 C14.68400391 15.78736328 13.80550781 15.76222656 12.90039062 15.73632812 C2.17460393 15.61759248 -5.87625264 19.01619784 -14 26 C-24.92651778 37.5568938 -29.68722826 49.183129 -29.3125 64.94921875 C-28.95283651 71.51157878 -26.83584477 75.16415523 -22.25 79.75 C-21.1775 80.4925 -20.105 81.235 -19 82 C-18.18982422 82.57234375 -18.18982422 82.57234375 -17.36328125 83.15625 C-10.8785473 87.09491704 -3.36753324 86.80813716 4 87 C4 87.33 4 87.66 4 88 C-5.87472511 89.44431591 -13.65960997 89.18123018 -22.16796875 83.5703125 C-25.63687564 80.80949176 -27.83432831 78.40364863 -29 74 C-29.66 74 -30.32 74 -31 74 C-31.99 71.69 -32.98 69.38 -34 67 C-33.34 67 -32.68 67 -32 67 C-32.10699219 66.16597656 -32.21398437 65.33195312 -32.32421875 64.47265625 C-33.10866275 57.10900452 -33.08852018 51.73637865 -30 45 C-29.69320312 44.22398437 -29.38640625 43.44796875 -29.0703125 42.6484375 C-23.40767594 29.62850672 -11.78240535 19.19245943 1.1171875 13.6640625 C3 13 3 13 5 13 C4.01 9.7 3.02 6.4 2 3 C1.34 3 0.68 3 0 3 C0 2.01 0 1.02 0 0 Z " fill="#525252" transform="translate(199,142)"/>
<path d="M0 0 C5.44410775 2.88483451 8.92402101 6.06075662 11.6015625 11.68359375 C13.28456047 19.25708462 13.19442623 25.56548359 9.31640625 32.35546875 C8.03176018 34.6231031 7.48863032 36.45430521 7.3515625 39.05859375 C7.67253906 39.86425781 7.99351562 40.66992188 8.32421875 41.5 C9.76215237 46.48082711 9.68058349 51.21324084 9.6640625 56.37109375 C9.68017578 57.36560547 9.69628906 58.36011719 9.71289062 59.38476562 C9.71713238 65.84495179 8.81472697 71.09148032 6.3515625 77.05859375 C5.98933594 77.97511719 5.62710938 78.89164062 5.25390625 79.8359375 C4.93550781 80.54878906 4.61710937 81.26164062 4.2890625 81.99609375 C3.96808594 82.72699219 3.64710938 83.45789063 3.31640625 84.2109375 C2.3515625 86.05859375 2.3515625 86.05859375 0.3515625 88.05859375 C-0.3084375 87.39859375 -0.9684375 86.73859375 -1.6484375 86.05859375 C-0.6584375 84.07859375 0.3315625 82.09859375 1.3515625 80.05859375 C2.0115625 80.05859375 2.6715625 80.05859375 3.3515625 80.05859375 C6.78839755 65.64390694 6.99212971 52.67601939 4.3515625 38.05859375 C3.454375 38.55359375 3.454375 38.55359375 2.5390625 39.05859375 C0.3515625 40.05859375 0.3515625 40.05859375 -2.6484375 40.05859375 C-2.3184375 39.06859375 -1.9884375 38.07859375 -1.6484375 37.05859375 C-0.5140625 36.76984375 0.6203125 36.48109375 1.7890625 36.18359375 C5.4963471 35.46787847 5.4963471 35.46787847 6.6640625 32.62109375 C7.004375 31.35265625 7.004375 31.35265625 7.3515625 30.05859375 C8.0115625 29.06859375 8.6715625 28.07859375 9.3515625 27.05859375 C10.12309266 20.20500115 9.95089943 14.01611694 6.3515625 8.05859375 C2.69624487 4.67073838 0.15233993 2.98539264 -4.78125 2.7421875 C-5.58691406 2.70029297 -6.39257812 2.65839844 -7.22265625 2.61523438 C-8.06441406 2.57591797 -8.90617188 2.53660156 -9.7734375 2.49609375 C-10.62292969 2.45291016 -11.47242188 2.40972656 -12.34765625 2.36523438 C-14.44771973 2.25905139 -16.54805698 2.15830878 -18.6484375 2.05859375 C-15.92954251 -3.37919623 -4.81438827 -1.71130911 0 0 Z " fill="#4D4D4D" transform="translate(211.6484375,18.94140625)"/>
<path d="M0 0 C5.35426673 0.62991373 9.05460654 2.77129682 12.609375 6.84375 C19.10038378 15.71265309 20.72425804 25.17827101 19.50390625 35.96875 C17.52309069 47.88435368 11.45233358 58.40553888 2 66 C-8.52946945 73.00926221 -17.55639297 74.37899311 -30 74 C-30 73.67 -30 73.34 -30 73 C-28.60201172 72.88785156 -28.60201172 72.88785156 -27.17578125 72.7734375 C-13.86533388 71.40067144 -0.63016265 67.13335361 8.125 56.4375 C9.11861585 54.98179936 10.07572198 53.50068216 11 52 C11.48984375 51.22785156 11.9796875 50.45570313 12.484375 49.66015625 C17.91865342 39.26480905 16.44911631 27.39235333 16 16 C15.34 16 14.68 16 14 16 C13.78085938 15.48050781 13.56171875 14.96101562 13.3359375 14.42578125 C10.37905488 7.92304345 6.74968946 3.85563785 0 1 C0 0.67 0 0.34 0 0 Z " fill="#404040" transform="translate(224,157)"/>
<path d="M0 0 C0.66 0.33 1.32 0.66 2 1 C3.28317892 4.84953676 3.06643637 7.94738135 3 12 C3.515625 11.835 4.03125 11.67 4.5625 11.5 C7.73363876 10.84951 10.77218334 10.9379266 14 11 C10.17482487 13.39073445 6.40334476 13.55966552 2 14 C1.67 15.98 1.34 17.96 1 20 C0.34 20 -0.32 20 -1 20 C-1.226875 20.78375 -1.45375 21.5675 -1.6875 22.375 C-3 25 -3 25 -5.625 26.3125 C-6.40875 26.539375 -7.1925 26.76625 -8 27 C-8 27.66 -8 28.32 -8 29 C-13.76658237 31.47139244 -18.86587431 32.30091975 -25.125 32.3125 C-26.12756836 32.32023437 -26.12756836 32.32023437 -27.15039062 32.328125 C-31.79763995 32.26402501 -35.62743818 31.42534158 -40 30 C-37.11935902 29.1845545 -34.50518278 28.85760726 -31.515625 28.7890625 C-30.66226563 28.76070312 -29.80890625 28.73234375 -28.9296875 28.703125 C-27.15905322 28.65150301 -25.38819212 28.60709895 -23.6171875 28.5703125 C-15.81876394 28.28928823 -8.6620484 26.82857924 -3 21 C-1.17210778 16.60420382 -0.80115545 12.98388263 -0.9375 8.25 C-1.09652928 2.19305857 -1.09652928 2.19305857 0 0 Z " fill="#4D4D4D" transform="translate(173,112)"/>
<path d="M0 0 C0.66 0.66 1.32 1.32 2 2 C1.80468763 5.51562267 1.35925457 8.26258273 -0.1875 11.4375 C-2 13 -2 13 -4.875 13.5625 C-9.06772074 12.80781027 -10.48834655 11.39811937 -13 8 C-13.3125 4.6875 -13.3125 4.6875 -13 2 C-8.49016424 -0.25491788 -4.94576735 -0.32431261 0 0 Z " fill="#0E0E0E" transform="translate(146,119)"/>
<path d="M0 0 C0 0.66 0 1.32 0 2 C5.03660233 3.16333651 5.03660233 3.16333651 9.75 1.5 C10.4925 1.005 11.235 0.51 12 0 C12.99 0.33 13.98 0.66 15 1 C14.18595703 1.43699219 14.18595703 1.43699219 13.35546875 1.8828125 C8.57697518 4.62076017 5.99471649 6.63919942 4 12 C3.34 12 2.68 12 2 12 C1.67 12.66 1.34 13.32 1 14 C1.33 11.03 1.66 8.06 2 5 C-1.66262649 3.32433182 -5.32989587 1.65922387 -9 0 C-9.69738281 -0.31839844 -10.39476562 -0.63679688 -11.11328125 -0.96484375 C-16.57188229 -3.39761273 -21.22157943 -4.12698729 -27.17578125 -4.09765625 C-28.91118164 -4.09282227 -28.91118164 -4.09282227 -30.68164062 -4.08789062 C-31.87982422 -4.07951172 -33.07800781 -4.07113281 -34.3125 -4.0625 C-36.1387793 -4.05573242 -36.1387793 -4.05573242 -38.00195312 -4.04882812 C-41.00135226 -4.03706578 -44.00065089 -4.02062826 -47 -4 C-34.01055294 -12.65963137 -12.94005818 -5.73106638 0 0 Z " fill="#484848" transform="translate(183,20)"/>
<path d="M0 0 C0.33 0 0.66 0 1 0 C0.49800802 3.72908331 -0.04207023 7.36147686 -1 11 C2.64605302 10.85936717 6.29178139 10.71153182 9.9375 10.5625 C11.46987305 10.50352539 11.46987305 10.50352539 13.03320312 10.44335938 C19.06590209 10.19279999 25.007705 9.74356945 31 9 C31 6.36 31 3.72 31 1 C31.33 1 31.66 1 32 1 C32.495 5.95 32.495 5.95 33 11 C23.62309322 13.08375706 14.85524798 13.10925809 5.27929688 12.66210938 C-0.67241579 12.29876226 -0.67241579 12.29876226 -5.48046875 15.3125 C-5.98191406 16.199375 -6.48335937 17.08625 -7 18 C-11.60653697 22.20762036 -15.89550951 24.72823115 -22 26 C-19.4805479 23.15192371 -16.83145612 21.22902688 -13.625 19.25 C-6.22412148 14.40534597 -2.66417649 8.28854907 0 0 Z " fill="#4A4A4A" transform="translate(135,199)"/>
<path d="M0 0 C2.12724498 3.19086747 2.22287904 3.77663449 2.0546875 7.38671875 C2.03019531 8.24330078 2.00570312 9.09988281 1.98046875 9.98242188 C1.91090394 11.76663037 1.83296289 13.55053464 1.74609375 15.33398438 C1.59061891 21.45694945 2.49242056 25.90100486 6 31 C8.68291796 33.84689628 8.68291796 33.84689628 12 36 C12.81017578 36.57234375 12.81017578 36.57234375 13.63671875 37.15625 C20.1214527 41.09491704 27.63246676 40.80813716 35 41 C35 41.33 35 41.66 35 42 C25.12527489 43.44431591 17.34039003 43.18123018 8.83203125 37.5703125 C5.36312436 34.80949176 3.16567169 32.40364863 2 28 C1.34 28 0.68 28 0 28 C-0.99 25.69 -1.98 23.38 -3 21 C-2.34 21 -1.68 21 -1 21 C-1.09539062 20.154375 -1.19078125 19.30875 -1.2890625 18.4375 C-1.94372856 11.7385915 -2.13494162 6.40482485 0 0 Z " fill="#5C5C5C" transform="translate(168,188)"/>
<path d="M0 0 C4.35375474 6.53063211 4.3368718 12.70362541 4.3125 20.3125 C4.32861328 21.30701172 4.34472656 22.30152344 4.36132812 23.32617188 C4.36556988 29.78635804 3.46316447 35.03288657 1 41 C0.63777344 41.91652344 0.27554688 42.83304688 -0.09765625 43.77734375 C-0.57525391 44.84662109 -0.57525391 44.84662109 -1.0625 45.9375 C-1.38347656 46.66839844 -1.70445312 47.39929688 -2.03515625 48.15234375 C-3 50 -3 50 -5 52 C-5.66 51.34 -6.32 50.68 -7 50 C-6.01 48.02 -5.02 46.04 -4 44 C-3.34 44 -2.68 44 -2 44 C1.20778189 30.54600217 1.84749316 18.28633527 -0.66015625 4.6171875 C-1 2 -1 2 0 0 Z " fill="#515151" transform="translate(217,55)"/>
<path d="M0 0 C0 0.66 0 1.32 0 2 C-1.32 2 -2.64 2 -4 2 C-2.88410679 16.52801151 -2.88410679 16.52801151 1.1953125 30.45703125 C2.12944454 33.40906988 2.13479691 35.92213712 2 39 C0 38 0 38 -1 35.05078125 C-1.33 33.81714844 -1.66 32.58351562 -2 31.3125 C-3.38191575 26.14791837 -3.38191575 26.14791837 -5.1171875 21.09765625 C-6.27387908 17.0389995 -6.21739782 13.31843963 -6.125 9.125 C-6.11597656 8.34125 -6.10695313 7.5575 -6.09765625 6.75 C-6.07428063 4.83319945 -6.03841653 2.91655809 -6 1 C-6.99 0.67 -7.98 0.34 -9 0 C-5.52176885 -1.15941038 -3.54104422 -0.70820884 0 0 Z " fill="#606060" transform="translate(104,63)"/>
<path d="M0 0 C4.32469147 6.48703721 4.08062424 15.42985159 3 23 C1.04488988 28.10087554 -1.64428237 31.07811201 -6.125 34.125 C-9.0088865 35.00270459 -10.25915733 35.15958728 -13 34 C-10 32 -10 32 -7 30.6875 C-3.56067805 28.7528814 -2.70922347 27.50007501 -1 24 C-0.50383495 21.20761312 -0.50383495 21.20761312 -0.48828125 18.26171875 C-0.45283203 17.19501953 -0.41738281 16.12832031 -0.38085938 15.02929688 C-0.35830078 13.92650391 -0.33574219 12.82371094 -0.3125 11.6875 C-0.27833984 10.56537109 -0.24417969 9.44324219 -0.20898438 8.28710938 C-0.12670399 5.52483938 -0.05748719 2.76287887 0 0 Z " fill="#7A7A7A" transform="translate(256,148)"/>
<path d="M0 0 C0.99 0.33 1.98 0.66 3 1 C3.60661219 2.63009057 4.16180646 4.27954345 4.6875 5.9375 C5.81066634 8.77399607 5.81066634 8.77399607 8 11 C13.05419663 12.87503266 18.66809181 12.86215984 24 13 C24.33 13.99 24.66 14.98 25 16 C21.37506666 16.05787784 17.75025143 16.0935542 14.125 16.125 C13.09246094 16.14175781 12.05992187 16.15851563 10.99609375 16.17578125 C10.00996094 16.18222656 9.02382812 16.18867188 8.0078125 16.1953125 C6.64100342 16.21102295 6.64100342 16.21102295 5.24658203 16.22705078 C3 16 3 16 1 14 C2.32 13.67 3.64 13.34 5 13 C4.01 9.7 3.02 6.4 2 3 C1.34 3 0.68 3 0 3 C0 2.01 0 1.02 0 0 Z " fill="#585858" transform="translate(199,142)"/>
<path d="M0 0 C2.81962165 2.60614872 4.95334682 5.57433573 7.1875 8.6875 C7.90292969 9.68136719 8.61835937 10.67523438 9.35546875 11.69921875 C9.89816406 12.45847656 10.44085938 13.21773437 11 14 C7.90595664 16.43840084 4.67977843 18.37991759 1.25 20.3125 C-3.79476973 23.21818845 -8.46299687 26.35705337 -13 30 C-9.92601939 23.00820097 -2.2127316 17.74404632 4.6796875 14.890625 C5.44539063 14.59671875 6.21109375 14.3028125 7 14 C6.4946875 13.15695313 5.989375 12.31390625 5.46875 11.4453125 C4.8190625 10.34960938 4.169375 9.25390625 3.5 8.125 C2.8503125 7.03445312 2.200625 5.94390625 1.53125 4.8203125 C0 2 0 2 0 0 Z " fill="#515151" transform="translate(105,98)"/>
<path d="M0 0 C1.60218298 0.47724599 3.20270721 0.96098297 4.79296875 1.4765625 C12.39319747 3.27909462 20.33854607 1.99877614 27.8203125 0.2421875 C28.89925781 0.12230469 28.89925781 0.12230469 30 0 C30.66 0.66 31.32 1.32 32 2 C22.39683228 6.19047319 10.45548785 6.83403716 0.4375 3.5 C-0.696875 3.005 -1.83125 2.51 -3 2 C-2.01 1.34 -1.02 0.68 0 0 Z " fill="#5D5D5D" transform="translate(83,224)"/>
<path d="M0 0 C2.63231951 2.14741855 3.78562464 3.7903105 4.3828125 7.16015625 C4.58467621 11.19070162 4.31277376 13.46381642 2.25 17 C0.04691751 18.95829554 -1.10905762 19.69025617 -4 20 C-3 17 -3 17 -0.375 14.75 C2.41202454 12.14031716 2.41202454 12.14031716 1.9375 8.3125 C1.27734142 4.95212718 1.27734142 4.95212718 -1 3 C-3.68839385 2.73008094 -6.29141936 2.91262643 -9 3 C-9.66 5.31 -10.32 7.62 -11 10 C-11.66 10 -12.32 10 -13 10 C-12.39053254 4.5147929 -12.39053254 4.5147929 -10.625 2.1875 C-7.28567722 -0.25277434 -3.99734131 -0.48947036 0 0 Z " fill="#545454" transform="translate(206,33)"/>
<path d="M0 0 C0.89203125 0.01804688 1.7840625 0.03609375 2.703125 0.0546875 C3.71632813 0.08949219 3.71632813 0.08949219 4.75 0.125 C5.08 1.115 5.41 2.105 5.75 3.125 C4.95335938 3.15078125 4.15671875 3.1765625 3.3359375 3.203125 C-5.21361 3.59724295 -5.21361 3.59724295 -12.25 8.125 C-15.02088981 11.9048973 -17.18784736 15.92570735 -19.25 20.125 C-20.01170685 17.86994682 -20.35826447 16.51825478 -19.71875 14.1953125 C-15.71808161 6.16171227 -9.40580821 -0.24752127 0 0 Z " fill="#747474" transform="translate(70.25,153.875)"/>
<path d="M0 0 C-3.93954721 3.93954721 -9.58868826 3.18255952 -14.875 3.1875 C-15.89787109 3.20586914 -15.89787109 3.20586914 -16.94140625 3.22460938 C-21.65631519 3.23808054 -25.52144019 2.47921101 -30 1 C-25.41140675 -0.27874546 -20.86196186 -0.39259494 -16.125 -0.625 C-14.79662109 -0.70234375 -14.79662109 -0.70234375 -13.44140625 -0.78125 C-8.79444954 -1.01671427 -4.58060463 -1.01287297 0 0 Z " fill="#757575" transform="translate(163,141)"/>
<path d="M0 0 C5.35426673 0.62991373 9.05460654 2.77129682 12.609375 6.84375 C17.8698388 14.0313144 20.64330104 22.31044912 19.6875 31.25 C19.3471875 33.10625 19.3471875 33.10625 19 35 C18.67 35 18.34 35 18 35 C17.34 28.73 16.68 22.46 16 16 C15.34 16 14.68 16 14 16 C13.78085938 15.48050781 13.56171875 14.96101562 13.3359375 14.42578125 C10.37905488 7.92304345 6.74968946 3.85563785 0 1 C0 0.67 0 0.34 0 0 Z " fill="#444444" transform="translate(224,157)"/>
<path d="M0 0 C9.97902459 -0.79714102 17.69296699 0.07191607 26 6 C28.3984375 8.51953125 28.3984375 8.51953125 30 11 C29.67 11.99 29.34 12.98 29 14 C28.67128906 13.54109375 28.34257812 13.0821875 28.00390625 12.609375 C24.0674485 7.53145118 20.27338802 4.59909891 14 3 C8.9955607 2.41065485 4.0392299 2.13278603 -1 2 C-0.67 1.34 -0.34 0.68 0 0 Z " fill="#515151" transform="translate(143,100)"/>
<path d="M0 0 C0.8125 1.6875 0.8125 1.6875 1 4 C-0.12609979 5.16022402 -1.26620427 6.30941194 -2.46484375 7.39453125 C-7.63559096 12.80210658 -10.66639543 19.99918629 -13 27 C-14.125 25.296875 -14.125 25.296875 -15 23 C-12.984946 16.26788779 -8.36867072 10.39800136 -4 5 C-3.21625 4.01 -2.4325 3.02 -1.625 2 C-1.08875 1.34 -0.5525 0.68 0 0 Z " fill="#555555" transform="translate(91,126)"/>
<path d="M0 0 C0.33 0 0.66 0 1 0 C1.02578125 0.78503906 1.0515625 1.57007813 1.078125 2.37890625 C1.43687374 9.02391133 1.91026728 13.66062672 6 19 C8.61857695 20.78962819 8.61857695 20.78962819 11 22 C11 22.66 11 23.32 11 24 C12.98 24.66 14.96 25.32 17 26 C15.28125 26.66015625 15.28125 26.66015625 13 27 C7.19735924 24.37450938 2.97318252 20.57471723 0 15 C-0.93742541 12.18772378 -1.13470844 10.41253156 -1.125 7.5 C-1.12757812 6.7265625 -1.13015625 5.953125 -1.1328125 5.15625 C-1 3 -1 3 0 0 Z " fill="#4C4C4C" transform="translate(81,36)"/>
<path d="M0 0 C0.66 0.33 1.32 0.66 2 1 C2.49176123 8.43105855 2.08633343 13.69153635 -2 20 C-2.474375 20.78375 -2.94875 21.5675 -3.4375 22.375 C-5.44069805 24.45832597 -7.24856993 25.17457098 -10 26 C-10.99 26 -11.98 26 -13 26 C-12.505 24.515 -12.505 24.515 -12 23 C-10.865625 22.71125 -9.73125 22.4225 -8.5625 22.125 C-4.8552154 21.40928472 -4.8552154 21.40928472 -3.6875 18.5625 C-3.3471875 17.2940625 -3.3471875 17.2940625 -3 16 C-2.34 15.01 -1.68 14.02 -1 13 C-0.5396236 9.80193335 -0.5396236 9.80193335 -0.375 6.3125 C-0.30023438 5.13300781 -0.22546875 3.95351563 -0.1484375 2.73828125 C-0.09945312 1.83464844 -0.05046875 0.93101563 0 0 Z " fill="#4E4E4E" transform="translate(222,33)"/>
<path d="M0 0 C2.5625 0.1875 2.5625 0.1875 4.5625 2.1875 C3.99431818 7.75568182 3.99431818 7.75568182 2.5625 9.1875 C0.89632885 9.22813832 -0.77138095 9.230221 -2.4375 9.1875 C-3.80373674 6.45502652 -3.565926 4.20551098 -3.4375 1.1875 C-2.4375 0.1875 -2.4375 0.1875 0 0 Z " fill="#272727" transform="translate(166.4375,88.8125)"/>
<path d="M0 0 C0.88751953 0.19529297 0.88751953 0.19529297 1.79296875 0.39453125 C1.79296875 1.38453125 1.79296875 2.37453125 1.79296875 3.39453125 C1.09429687 3.37132812 0.395625 3.348125 -0.32421875 3.32421875 C-1.68933594 3.29714844 -1.68933594 3.29714844 -3.08203125 3.26953125 C-3.98695312 3.24632812 -4.891875 3.223125 -5.82421875 3.19921875 C-8.39510119 3.15128289 -8.39510119 3.15128289 -10.20703125 5.39453125 C-10.79105258 7.80870997 -10.79105258 7.80870997 -10.20703125 10.39453125 C-7.4891665 13.03689976 -4.66264577 14.85870257 -1.20703125 16.39453125 C-5.18311155 16.85686617 -6.77554329 16.70407696 -10.08203125 14.33203125 C-12.20703125 11.39453125 -12.20703125 11.39453125 -12.83203125 7.89453125 C-12.20703125 4.39453125 -12.20703125 4.39453125 -10.26953125 1.39453125 C-6.4063517 -1.12836152 -4.40541819 -0.76897185 0 0 Z " fill="#676767" transform="translate(106.20703125,37.60546875)"/>
<path d="M0 0 C0.33 0 0.66 0 1 0 C2.56161606 13.22669991 0.73833235 20.73393444 -6 32 C-6.66 32 -7.32 32 -8 32 C-6.99864586 29.41976655 -5.95413207 26.90540633 -4.74609375 24.4140625 C-0.86366499 16.13927403 -0.1356329 9.02575273 0 0 Z " fill="#585858" transform="translate(241,182)"/>
<path d="M0 0 C2.15206927 3.22810391 2.22831827 3.88642985 2.046875 7.5625 C2.00433594 8.44164062 1.96179688 9.32078125 1.91796875 10.2265625 C1.86253906 11.14179688 1.80710938 12.05703125 1.75 13 C1.71003906 13.91523438 1.67007813 14.83046875 1.62890625 15.7734375 C1.25783121 22.61325319 1.25783121 22.61325319 -1 26 C-1.66 24.35 -2.32 22.7 -3 21 C-2.34 21 -1.68 21 -1 21 C-1.09539062 20.154375 -1.19078125 19.30875 -1.2890625 18.4375 C-1.94372856 11.7385915 -2.13494162 6.40482485 0 0 Z " fill="#818181" transform="translate(168,188)"/>
<path d="M0 0 C4.70588235 0.70588235 4.70588235 0.70588235 6 2 C6.04063832 3.66617115 6.042721 5.33388095 6 7 C3.625 7.625 3.625 7.625 1 8 C-1 6 -1 6 -1.1875 3.4375 C-1 1 -1 1 0 0 Z " fill="#151515" transform="translate(125,92)"/>
<path d="M0 0 C4.10903755 6.16355632 4.19286397 11.25398576 3.625 18.375 C3.56828125 19.20644531 3.5115625 20.03789063 3.453125 20.89453125 C3.3127169 22.93044876 3.15782335 24.96535843 3 27 C2.67 27 2.34 27 2 27 C1.91697632 26.13048706 1.91697632 26.13048706 1.83227539 25.2434082 C1.57832383 22.59951088 1.32044806 19.95601028 1.0625 17.3125 C0.93198242 15.94448242 0.93198242 15.94448242 0.79882812 14.54882812 C0.71181641 13.66259766 0.62480469 12.77636719 0.53515625 11.86328125 C0.456604 11.05157471 0.37805176 10.23986816 0.29711914 9.40356445 C0.03153426 6.94006033 0.03153426 6.94006033 -0.59594727 4.32104492 C-1 2 -1 2 0 0 Z " fill="#757575" transform="translate(217,55)"/>
<path d="M0 0 C2.125 0.9375 2.125 0.9375 4 2 C3.46890625 2.23074219 2.9378125 2.46148438 2.390625 2.69921875 C-3.08541655 5.22739122 -6.36073531 7.72147062 -9.125 13.25 C-10 15 -10 15 -12 16 C-11.32599065 10.27092056 -8.65492634 6.4579113 -4.375 2.6875 C-2 1 -2 1 0 0 Z " fill="#636363" transform="translate(92,23)"/>
<path d="M0 0 C0.66 0.33 1.32 0.66 2 1 C0.73168307 1.81642254 -0.53975931 2.62799105 -1.8125 3.4375 C-2.87404297 4.11619141 -2.87404297 4.11619141 -3.95703125 4.80859375 C-8.07265219 7.20871686 -11.51191903 7.10539524 -16.1875 7.0625 C-17.45980469 7.05347656 -18.73210937 7.04445313 -20.04296875 7.03515625 C-21.50669922 7.01775391 -21.50669922 7.01775391 -23 7 C-23 6.67 -23 6.34 -23 6 C-22.17757812 5.90203125 -21.35515625 5.8040625 -20.5078125 5.703125 C-13.82961769 4.8085862 -8.05119767 3.54417175 -1.92578125 0.70703125 C-1.29027344 0.47371094 -0.65476563 0.24039063 0 0 Z " fill="#424242" transform="translate(197,119)"/>
<path d="M0 0 C0.33 0.66 0.66 1.32 1 2 C0.52691406 2.40089844 0.05382812 2.80179687 -0.43359375 3.21484375 C-5.88180185 7.89839107 -10.97357003 12.86885274 -16 18 C-16 14.47967572 -15.29648649 13.5614657 -13 11 C-12.34 11 -11.68 11 -11 11 C-10.64808594 10.12601563 -10.64808594 10.12601563 -10.2890625 9.234375 C-8.70847076 6.49468266 -6.90598503 5.13016031 -4.375 3.25 C-3.55773437 2.63640625 -2.74046875 2.0228125 -1.8984375 1.390625 C-0.95871094 0.70226562 -0.95871094 0.70226562 0 0 Z " fill="#DCDCDC" transform="translate(103,119)"/>
<path d="M0 0 C0.33 1.32 0.66 2.64 1 4 C1.66386719 4.10957031 2.32773438 4.21914062 3.01171875 4.33203125 C7.90879478 5.21136023 11.90161428 5.99451714 16 9 C15.01 9.495 15.01 9.495 14 10 C12.948125 9.566875 11.89625 9.13375 10.8125 8.6875 C4.53080531 6.14685168 -2.31599924 5.73976571 -9 5 C-9 4.67 -9 4.34 -9 4 C-6.36 4 -3.72 4 -1 4 C-0.67 2.68 -0.34 1.36 0 0 Z " fill="#3E3E3E" transform="translate(76,151)"/>
<path d="M0 0 C-0.61746094 0.29132813 -1.23492187 0.58265625 -1.87109375 0.8828125 C-7.93070627 3.81577564 -13.49408961 7.12990357 -19 11 C-16.6066719 5.32965342 -11.55836922 2.33732937 -6.25 -0.4375 C-3.72310961 -1.0692226 -2.45835942 -0.70755303 0 0 Z " fill="#4C4C4C" transform="translate(202,158)"/>
<path d="M0 0 C0.66 0.33 1.32 0.66 2 1 C3.28317892 4.84953676 3.06643637 7.94738135 3 12 C3.515625 11.835 4.03125 11.67 4.5625 11.5 C7.73363876 10.84951 10.77218334 10.9379266 14 11 C10.07925671 13.61382886 6.55488983 13.29386386 2 13 C-0.36453193 10.63546807 -0.36652704 9.74130071 -0.6875 6.5 C-0.77386719 5.7059375 -0.86023438 4.911875 -0.94921875 4.09375 C-1 2 -1 2 0 0 Z " fill="#909090" transform="translate(173,112)"/>
<path d="M0 0 C-2.65131191 2.65131191 -5.37118881 3.4631534 -9 4 C-12.04086682 3.87933068 -15.00029924 3.50335115 -18 3 C-18 2.67 -18 2.34 -18 2 C-15.94077867 1.46635113 -13.87743893 0.94857811 -11.8125 0.4375 C-10.08966797 0.00244141 -10.08966797 0.00244141 -8.33203125 -0.44140625 C-5.11519907 -0.98068761 -3.10327217 -0.88247476 0 0 Z " fill="#6D6D6D" transform="translate(115,225)"/>
<path d="M0 0 C0.80244141 0.04833984 1.60488281 0.09667969 2.43164062 0.14648438 C3.68170898 0.2305957 3.68170898 0.2305957 4.95703125 0.31640625 C6.22450195 0.3947168 6.22450195 0.3947168 7.51757812 0.47460938 C9.60189424 0.60414314 11.68576307 0.74083802 13.76953125 0.87890625 C13.76953125 1.20890625 13.76953125 1.53890625 13.76953125 1.87890625 C12.30193359 1.96978516 12.30193359 1.96978516 10.8046875 2.0625 C3.76984242 2.51212137 -3.23163134 3.0193999 -10.23046875 3.87890625 C-7.09106867 0.44051568 -4.58393451 -0.29259156 0 0 Z " fill="#808080" transform="translate(143.23046875,101.12109375)"/>
<path d="M0 0 C2.81962165 2.60614872 4.95334682 5.57433573 7.1875 8.6875 C7.90292969 9.68136719 8.61835937 10.67523438 9.35546875 11.69921875 C9.89816406 12.45847656 10.44085938 13.21773437 11 14 C10.34 14.66 9.68 15.32 9 16 C8.01 15.67 7.02 15.34 6 15 C6 14.01 6 13.02 6 12 C5.06188424 10.27732909 4.05294737 8.59247978 3 6.9375 C0 2.20833333 0 2.20833333 0 0 Z " fill="#424242" transform="translate(105,98)"/>
<path d="M0 0 C0.56074219 0.23976563 1.12148437 0.47953125 1.69921875 0.7265625 C0.33796875 1.561875 0.33796875 1.561875 -1.05078125 2.4140625 C-5.16167333 5.33912033 -7.52841814 8.56801783 -10.30078125 12.7265625 C-11.0625 10.5 -11.0625 10.5 -11.30078125 7.7265625 C-9.5703125 5.453125 -9.5703125 5.453125 -7.11328125 3.3515625 C-6.31535156 2.64257812 -5.51742187 1.93359375 -4.6953125 1.203125 C-2.30078125 -0.2734375 -2.30078125 -0.2734375 0 0 Z " fill="#595959" transform="translate(133.30078125,105.2734375)"/>
<path d="M0 0 C0.66 0 1.32 0 2 0 C2.8353125 1.794375 2.8353125 1.794375 3.6875 3.625 C5.67113911 7.6207175 8.02266208 10.69184676 11 14 C6.5937814 12.65365543 4.56922298 10.80625626 2 7 C2 6.34 2 5.68 2 5 C1.34 5 0.68 5 0 5 C0 3.35 0 1.7 0 0 Z " fill="#4F4F4F" transform="translate(168,211)"/>
<path d="M0 0 C0.703125 1.76953125 0.703125 1.76953125 1 4 C-0.328125 5.88671875 -0.328125 5.88671875 -2.25 7.6875 C-2.87390625 8.28949219 -3.4978125 8.89148438 -4.140625 9.51171875 C-6 11 -6 11 -9 12 C-9 9 -9 9 -7.5390625 7.5 C-6.90742188 7.005 -6.27578125 6.51 -5.625 6 C-3.13659847 4.03385558 -1.8042713 2.70640694 0 0 Z " fill="#606060" transform="translate(208,108)"/>
<path d="M0 0 C0.66 0.99 1.32 1.98 2 3 C-0.66666667 6.33333333 -3.33333333 9.66666667 -6 13 C-6.99 12.67 -7.98 12.34 -9 12 C-8.27683594 11.07767578 -8.27683594 11.07767578 -7.5390625 10.13671875 C-6.90742187 9.32847656 -6.27578125 8.52023438 -5.625 7.6875 C-4.99851562 6.88699219 -4.37203125 6.08648437 -3.7265625 5.26171875 C-2.42243282 3.55336788 -1.19218183 1.78827274 0 0 Z " fill="#5E5E5E" transform="translate(123,147)"/>
<path d="M0 0 C0.33 0 0.66 0 1 0 C0 7.42857143 0 7.42857143 -1 11 C0.98 11 2.96 11 5 11 C5 11.33 5 11.66 5 12 C2.03 12 -0.94 12 -4 12 C-3.27467453 9.09869813 -2.49882535 6.51867482 -1.4375 3.75 C-1.16808594 3.04359375 -0.89867187 2.3371875 -0.62109375 1.609375 C-0.41613281 1.07828125 -0.21117187 0.5471875 0 0 Z " fill="#3B3B3B" transform="translate(135,199)"/>
<path d="M0 0 C2.69921875 0.6796875 2.69921875 0.6796875 5.6875 1.875 C7.17830078 2.45894531 7.17830078 2.45894531 8.69921875 3.0546875 C9.83810547 3.52261719 9.83810547 3.52261719 11 4 C9.328125 5.1171875 9.328125 5.1171875 7 6 C4.421875 5.3203125 4.421875 5.3203125 1.75 4.125 C0.85796875 3.73570313 -0.0340625 3.34640625 -0.953125 2.9453125 C-1.62859375 2.63335938 -2.3040625 2.32140625 -3 2 C-2.01 1.34 -1.02 0.68 0 0 Z " fill="#6F6F6F" transform="translate(172,16)"/>
<path d="M0 0 C-1.45381897 0.69699552 -2.91322953 1.38233866 -4.375 2.0625 C-5.18710938 2.44535156 -5.99921875 2.82820313 -6.8359375 3.22265625 C-7.55007812 3.47917969 -8.26421875 3.73570313 -9 4 C-11 3 -11 3 -12 1 C-10.75835303 0.43945064 -9.50616116 -0.09777907 -8.25 -0.625 C-7.55390625 -0.92664063 -6.8578125 -1.22828125 -6.140625 -1.5390625 C-3.41644339 -2.12565635 -2.31280265 -1.44810616 0 0 Z " fill="#777777" transform="translate(138,17)"/>
<path d="M0 0 C0.33 0 0.66 0 1 0 C1.48695652 7.1826087 1.48695652 7.1826087 -0.75 10.9375 C-2.95750669 12.9610478 -4.06829636 13.6858889 -7 14 C-6 11 -6 11 -3.5 8.6875 C-0.69510964 5.67224287 -0.28137724 4.03307384 0 0 Z " fill="#4A4A4A" transform="translate(209,39)"/>
<path d="M0 0 C1.63001953 0.01353516 1.63001953 0.01353516 3.29296875 0.02734375 C4.12441406 0.03894531 4.95585937 0.05054687 5.8125 0.0625 C4.8225 1.5475 4.8225 1.5475 3.8125 3.0625 C0.5546875 3.35546875 0.5546875 3.35546875 -3.3125 3.25 C-5.23449219 3.20939453 -5.23449219 3.20939453 -7.1953125 3.16796875 C-8.18273437 3.13316406 -9.17015625 3.09835938 -10.1875 3.0625 C-8.19010785 -0.9322843 -3.93646808 -0.04232761 0 0 Z " fill="#8B8B8B" transform="translate(203.1875,17.9375)"/>
<path d="M0 0 C1 2 1 2 0.75 4.375 C0.73448202 7.21430855 0.73448202 7.21430855 3.25 9.1875 C5.46684471 10.6486022 7.57878128 11.92390279 10 13 C6.0239197 13.46233492 4.43148796 13.30954571 1.125 10.9375 C-1.48168936 7.33413529 -1.50243747 5.3544581 -1 1 C-0.67 0.67 -0.34 0.34 0 0 Z " fill="#393939" transform="translate(95,41)"/>
<path d="M0 0 C-4.455 3.465 -4.455 3.465 -9 7 C-9.99 6.34 -10.98 5.68 -12 5 C-10.76265016 3.96386967 -9.50955363 2.94652198 -8.25 1.9375 C-7.55390625 1.36902344 -6.8578125 0.80054687 -6.140625 0.21484375 C-4 -1 -4 -1 0 0 Z " fill="#5B5B5B" transform="translate(128,20)"/>
<path d="M0 0 C0.99 0 1.98 0 3 0 C4.82421875 1.8984375 4.82421875 1.8984375 6.6875 4.375 C7.31011719 5.18710938 7.93273437 5.99921875 8.57421875 6.8359375 C10 9 10 9 10 11 C9.34 11 8.68 11 8 11 C6.56197818 9.4089357 5.19674665 7.7513985 3.875 6.0625 C3.15054688 5.14597656 2.42609375 4.22945312 1.6796875 3.28515625 C0 1 0 1 0 0 Z " fill="#484848" transform="translate(103,170)"/>
<path d="M0 0 C0.66 0.99 1.32 1.98 2 3 C1.5390625 5.04296875 1.5390625 5.04296875 0.625 7.1875 C0.32851562 7.90292969 0.03203125 8.61835938 -0.2734375 9.35546875 C-0.51320313 9.89816406 -0.75296875 10.44085938 -1 11 C-2.1875 9.4375 -2.1875 9.4375 -3 7 C-1.625 3.25 -1.625 3.25 0 0 Z " fill="#6F6F6F" transform="translate(79,142)"/>
<path d="M0 0 C0.66 0.66 1.32 1.32 2 2 C-4.4 6.06153846 -4.4 6.06153846 -7.4375 5.75 C-7.953125 5.5025 -8.46875 5.255 -9 5 C-6.08596738 3.05731159 -3.14191424 1.53604696 0 0 Z " fill="#5A5A5A" transform="translate(252,177)"/>
<path d="M0 0 C0.33 0.66 0.66 1.32 1 2 C4.96 2 8.92 2 13 2 C13 2.33 13 2.66 13 3 C10.54220024 3.22126178 8.08472352 3.42750395 5.625 3.625 C4.57699219 3.72167969 4.57699219 3.72167969 3.5078125 3.8203125 C1.67630889 3.96119739 -0.16312748 3.98761659 -2 4 C-2.66 3.34 -3.32 2.68 -4 2 C-2.68 1.34 -1.36 0.68 0 0 Z " fill="#7F7F7F" transform="translate(204,154)"/>
<path d="M0 0 C7.48291572 6.15034169 7.48291572 6.15034169 10 10 C4.98343041 8.5666944 2.98547118 6.09436048 0 2 C0 1.34 0 0.68 0 0 Z " fill="#434343" transform="translate(61,208)"/>
<path d="M0 0 C-3.23521742 2.48862878 -6.59260295 4.75421558 -10 7 C-9.63206382 4.33246269 -9.18001672 3.18001672 -7.25 1.25 C-4.62056017 -0.21079991 -2.9625559 -0.24687966 0 0 Z " fill="#4E4E4E" transform="translate(66,156)"/>
<path d="M0 0 C0.33 0 0.66 0 1 0 C1.05406122 1.93719378 1.09282025 3.87481921 1.125 5.8125 C1.14820313 6.89144531 1.17140625 7.97039062 1.1953125 9.08203125 C1 12 1 12 -1 15 C-1.97798721 11.20431539 -1.92653069 8.4994001 -1.0625 4.6875 C-0.86785156 3.80449219 -0.67320312 2.92148438 -0.47265625 2.01171875 C-0.31667969 1.34785156 -0.16070312 0.68398437 0 0 Z " fill="#5F5F5F" transform="translate(174,117)"/>
<path d="M0 0 C0.99 0.33 1.98 0.66 3 1 C1.92598892 3.91517292 1.22189824 5.77810176 -1 8 C-1.66 7.34 -2.32 6.68 -3 6 C-2.01 4.02 -1.02 2.04 0 0 Z " fill="#787878" transform="translate(213,99)"/>
<path d="M0 0 C-2.62198774 2.15377564 -4.64404172 3.40072174 -8 4 C-8.33 3.34 -8.66 2.68 -9 2 C-3.375 -1.125 -3.375 -1.125 0 0 Z " fill="#616161" transform="translate(221,225)"/>
<path d="M0 0 C3.93673644 1.31224548 6.22719294 2.91910327 9 6 C8.67 6.66 8.34 7.32 8 8 C6.66372225 6.85760183 5.33104612 5.71098945 4 4.5625 C3.2575 3.92441406 2.515 3.28632813 1.75 2.62890625 C1.1725 2.09136719 0.595 1.55382812 0 1 C0 0.67 0 0.34 0 0 Z " fill="#464646" transform="translate(120,170)"/>
<path d="M0 0 C0.33 0 0.66 0 1 0 C0.25 6.625 0.25 6.625 -2 10 C-2.66 10 -3.32 10 -4 10 C-2.8905928 6.51329166 -1.73662334 3.22515763 0 0 Z " fill="#4F4F4F" transform="translate(257,168)"/>
<path d="M0 0 C3.465 1.98 3.465 1.98 7 4 C6.34 4.66 5.68 5.32 5 6 C3.02 4.68 1.04 3.36 -1 2 C-0.67 1.34 -0.34 0.68 0 0 Z " fill="#5D5D5D" transform="translate(114,165)"/>
<path d="M0 0 C3 2 3 2 3.6875 5.125 C3.790625 6.07375 3.89375 7.0225 4 8 C1.47411298 5.63707344 0.11179163 4.33537489 -1 1 C-0.67 0.67 -0.34 0.34 0 0 Z " fill="#5F5F5F" transform="translate(116,30)"/>
</svg>
