<?xml version="1.0" standalone="no"?>
<!DOCTYPE svg PUBLIC "-//W3C//DTD SVG 20010904//EN"
 "http://www.w3.org/TR/2001/REC-SVG-20010904/DTD/svg10.dtd">
<svg version="1.0" xmlns="http://www.w3.org/2000/svg"
 width="311.000000pt" height="265.000000pt" viewBox="0 0 311.000000 265.000000"
 preserveAspectRatio="xMidYMid meet">

<g transform="translate(0.000000,265.000000) scale(0.100000,-0.100000)"
fill="#000000" stroke="none">
<path d="M1415 2509 c-68 -10 -161 -53 -224 -102 l-42 -33 -57 29 c-47 24 -65
28 -104 23 -173 -19 -246 -230 -121 -348 15 -15 49 -36 76 -48 l47 -21 0 -72
c0 -133 57 -312 116 -368 13 -12 24 -27 24 -33 0 -6 -26 -24 -57 -41 -126 -66
-231 -180 -294 -320 l-34 -75 -40 0 c-54 -1 -117 -31 -147 -71 -52 -69 -62
-99 -62 -189 0 -79 2 -90 39 -164 27 -54 61 -101 105 -145 83 -85 130 -116
221 -148 61 -21 85 -24 136 -20 93 9 199 57 272 124 l62 56 67 -6 c62 -6 198
4 248 19 18 5 24 -1 37 -35 86 -214 423 -242 616 -51 77 76 131 202 131 308 0
35 3 39 53 62 93 44 123 125 93 248 -9 37 -28 91 -42 121 -46 93 -196 235
-361 340 -29 18 -53 34 -53 35 0 2 13 29 29 62 63 126 77 260 40 379 l-20 66
28 37 c21 29 28 50 31 99 6 84 -4 126 -35 164 -68 80 -218 92 -295 23 -15 -15
-19 -14 -45 3 -57 39 -170 83 -238 93 -80 11 -116 11 -200 -1z m261 -23 c63
-17 194 -84 194 -100 0 -6 -7 -20 -15 -30 -8 -11 -15 -27 -15 -35 1 -9 7 -2
14 14 47 104 172 145 276 93 110 -56 125 -257 24 -323 -67 -43 -69 -45 -32
-31 l38 15 20 -66 c28 -90 26 -182 -5 -280 -63 -200 -194 -324 -358 -340 l-67
-6 0 41 c0 80 -38 135 -125 179 -40 21 -64 26 -120 26 -101 -1 -176 -31 -243
-100 l-54 -54 -33 26 c-101 76 -175 257 -175 424 0 31 5 62 10 67 7 7 -7 16
-43 27 -126 40 -187 174 -129 283 19 36 80 83 123 94 85 23 158 -15 227 -116
7 -10 3 0 -9 23 l-23 43 24 25 c47 50 166 103 265 119 47 7 175 -3 231 -18z
m-30 -891 c92 -58 118 -152 69 -252 -20 -39 -36 -56 -78 -79 -48 -27 -60 -29
-152 -29 -91 0 -105 3 -160 30 -79 39 -105 78 -105 155 0 81 36 129 133 176
68 33 77 35 158 32 75 -3 92 -7 135 -33z m533 -62 c129 -85 250 -189 302 -260
83 -112 117 -271 75 -355 -19 -40 -67 -76 -106 -80 -21 -3 -25 3 -32 41 -14
83 -80 166 -158 199 -19 8 -71 18 -115 21 l-80 6 -28 59 c-15 32 -30 56 -32
54 -3 -3 7 -28 21 -58 14 -29 22 -56 17 -60 -4 -4 -25 -13 -45 -19 -159 -51
-318 -264 -335 -448 -7 -78 -7 -78 -193 -78 -115 0 -134 2 -131 15 32 119 32
121 21 174 -19 94 -72 156 -210 247 l-25 16 49 59 c26 32 59 79 73 104 14 25
32 55 39 67 l14 22 55 -20 c74 -26 187 -26 258 1 60 23 98 58 120 111 15 36
15 36 84 41 89 6 173 50 240 123 26 29 52 53 57 54 5 1 34 -16 65 -36z m-995
-37 c24 -20 28 -29 23 -54 -9 -44 10 -98 48 -141 l34 -37 -27 -49 c-56 -103
-189 -265 -216 -265 -7 0 -25 14 -41 30 -44 46 -113 86 -177 105 -67 19 -69
26 -33 103 34 74 74 129 139 192 52 51 187 140 211 140 5 -1 23 -11 39 -24z
m-297 -446 c51 -24 90 -55 156 -122 48 -48 87 -84 87 -79 0 5 -7 14 -15 21 -9
7 -25 26 -37 42 l-20 29 23 25 c12 13 30 24 39 24 22 0 127 -78 171 -127 25
-27 41 -60 54 -105 17 -65 17 -67 -4 -137 -17 -57 -31 -80 -71 -120 -54 -54
-151 -105 -231 -122 -175 -38 -399 102 -498 310 -30 65 -35 84 -35 150 1 87
22 148 71 197 42 41 84 54 170 50 57 -2 86 -10 140 -36z m1385 7 c147 -72 191
-288 97 -474 -112 -222 -415 -301 -602 -159 -95 72 -118 208 -58 346 60 140
181 263 296 300 85 28 194 23 267 -13z"/>
<path d="M1961 2284 c-12 -15 -21 -34 -21 -43 1 -9 7 -2 14 15 8 17 21 34 31
38 88 33 144 -67 75 -136 -17 -17 -29 -32 -27 -35 2 -2 18 12 36 32 60 68 31
155 -51 155 -28 0 -42 -7 -57 -26z"/>
<path d="M966 2249 c-36 -28 -35 -72 3 -110 20 -19 39 -29 58 -28 26 1 26 2
-7 9 -64 15 -91 79 -50 120 22 22 45 25 87 10 26 -9 27 -9 9 5 -28 21 -69 19
-100 -6z"/>
<path d="M1640 1741 c-14 -27 -13 -37 6 -55 20 -21 54 -4 54 27 0 44 -41 63
-60 28z"/>
<path d="M1245 1710 c-8 -26 11 -60 35 -60 23 0 35 33 20 60 -14 26 -47 26
-55 0z"/>
<path d="M1360 1447 c-14 -7 -26 -22 -28 -33 -4 -25 51 -84 77 -84 41 0 86 85
61 115 -15 18 -76 19 -110 2z"/>
</g>
</svg>
